HIERARCHY
ROOT Hips
{
  OFFSET 57.8838 95.319 338.509
  CHANNELS 6 Xposition Yposition Zposition Zrotation Xrotation Yrotation
  JOINT LeftUpLeg
  {
    OFFSET 8.64259 1.95398 -2.38835
    CHANNELS 3 Zrotation Xrotation Yrotation
    JOINT LeftLeg
    {
      OFFSET 43.7702 0 0
      CHANNELS 3 Zrotation Xrotation Yrotation
      JOINT LeftFoot
      {
        OFFSET 40.6238 0 0
        CHANNELS 3 Zrotation Xrotation Yrotation
        JOINT LeftToeBase
        {
          OFFSET 12.7242 0 0
          CHANNELS 3 Zrotation Xrotation Yrotation
          End Site
          {
            OFFSET 0 0 0
          }
        }
      }
    }
  }
  JOINT RightUpLeg
  {
    OFFSET -8.2249 1.95398 -2.59336
    CHANNELS 3 Zrotation Xrotation Yrotation
    JOINT RightLeg
    {
      OFFSET 43.5653 0 0
      CHANNELS 3 Zrotation Xrotation Yrotation
      JOINT RightFoot
      {
        OFFSET 40.6238 0 0
        CHANNELS 3 Zrotation Xrotation Yrotation
        JOINT RightToeBase
        {
          OFFSET 12.7242 0 0
          CHANNELS 3 Zrotation Xrotation Yrotation
          End Site
          {
            OFFSET 0 0 0
          }
        }
      }
    }
  }
  JOINT Spine
  {
    OFFSET 0.165834 0.87714 6.61349
    CHANNELS 3 Zrotation Xrotation Yrotation
    JOINT Spine1
    {
      OFFSET 7.38963 1.71661e-005 0
      CHANNELS 3 Zrotation Xrotation Yrotation
      JOINT Spine2
      {
        OFFSET 11.9445 1.14441e-005 0
        CHANNELS 3 Zrotation Xrotation Yrotation
        JOINT Spine3
        {
          OFFSET 14.7254 4.19617e-005 0
          CHANNELS 3 Zrotation Xrotation Yrotation
          JOINT Spine4
          {
            OFFSET 10.9679 0 0
            CHANNELS 3 Zrotation Xrotation Yrotation
            JOINT RightShoulder
            {
              OFFSET 2.46616 -1.6653 3.69651
              CHANNELS 3 Zrotation Xrotation Yrotation
              JOINT RightArm
              {
                OFFSET 13.0012 0 0
                CHANNELS 3 Zrotation Xrotation Yrotation
                JOINT RightForeArm
                {
                  OFFSET 28.7848 1.62311e-005 0
                  CHANNELS 3 Zrotation Xrotation Yrotation
                  JOINT RightHand
                  {
                    OFFSET 26.5688 1.62095e-005 0
                    CHANNELS 3 Zrotation Xrotation Yrotation
                    End Site
                    {
                      OFFSET 0 0 0
                    }
                  }
                }
              }
            }
            JOINT LeftShoulder
            {
              OFFSET 2.38034 -1.29275 -3.7523
              CHANNELS 3 Zrotation Xrotation Yrotation
              JOINT LeftArm
              {
                OFFSET 16.3182 6.07031e-005 0
                CHANNELS 3 Zrotation Xrotation Yrotation
                JOINT LeftForeArm
                {
                  OFFSET 27.0901 0 0
                  CHANNELS 3 Zrotation Xrotation Yrotation
                  JOINT LeftHand
                  {
                    OFFSET 24.5451 1.51738e-005 0
                    CHANNELS 3 Zrotation Xrotation Yrotation
                    End Site
                    {
                      OFFSET 0 0 0
                    }
                  }
                }
              }
            }
            JOINT Neck
            {
              OFFSET 5.0226 -0.0266342 0
              CHANNELS 3 Zrotation Xrotation Yrotation
              JOINT Head
              {
                OFFSET 6.69364 2.86102e-005 0
                CHANNELS 3 Zrotation Xrotation Yrotation
                End Site
                {
                  OFFSET 0 0 0
                }
              }
            }
          }
        }
      }
    }
  }
}
MOTION
Frames:	15
Frame Time:	0.0416667
96.0975 81.133 99.3589 -70.5439 26.7541 -109.884 -177.764 19.779 81.9125 -54.5117 28.2338 0.946899 64.1868 14.3815 18.1317 69.7706 22.0545 13.8183 176.472 65.9873 94.8471 -133.54 -12.3257 -3.33482 59.1396 1.08463 -3.18963 29.4301 -0.783233 -3.31825 -1.07936 10.0121 -89.4776 6.8579 -1.93207 1.10861 -4.81216 -1.88141 1.19258 -27.3578 -2.17592 0.476486 -7.3452 -2.1759 0.476478 96.635 -49.821 -90.6077 35.5911 -7.88679 26.2244 -7.66234 -1.19569 -50.9235 -10.705 -0.389699 -0.987253 -85.1091 -38.3186 84.3196 -11.0511 -15.9682 -64.726 3.5194 6.12821 -61.4957 9.77732 -1.56378 -18.1472 28.341 -2.67335 -4.02162 -6.16051 -1.38823 10.4538 
82.2829 84.0451 88.2975 -71.1628 24.6672 -97.9669 179.678 4.76867 90.8787 -44.5467 30.1764 8.90151 57.8809 0.33346 5.34206 63.8378 17.6573 10.4848 144.067 68.847 123.406 -102.567 -10.3718 -2.76919 65.4854 -6.90715 -7.12398 40.754 -18.3222 -8.95724 -1.23004 10.0864 -91.2504 6.64124 -2.98896 -2.34036 -5.02851 -3.08902 -2.20654 -27.5596 -2.1479 -3.13015 -7.54693 -2.14789 -3.13014 93.4126 -44.2937 -96.5849 35.8976 -1.49709 39.755 7.51651 10.8704 -52.4048 -8.42522 -0.0819123 -4.17067 -83.6788 -37.2818 86.6528 -12.2796 -12.2502 -51.4573 11.2448 4.7274 -77.9658 11.5188 -1.74714 -17.856 30.81 0.258779 -5.02442 -10.8922 1.04347 16.1881 
67.2039 87.357 75.4272 -72.659 34.3052 -100.878 -178.464 -0.732588 91.0459 -47.385 19.0444 5.18551 43.4874 -16.6502 -2.85791 33.2724 1.60153 11.5084 158.982 58.3861 104.605 -71.7215 -15.6602 3.92831 63.8471 -3.22502 -1.41553 44.0264 -24.0256 -10.6946 -0.734419 10.5724 -90.8001 5.718 -1.80184 -1.53155 -5.95232 -1.86751 -1.45077 -28.4871 -1.25828 -2.00219 -8.47446 -1.25828 -2.00219 92.0434 -48.0866 -98.0731 27.2699 -2.46448 24.3694 14.5142 15.8969 -49.8127 -6.9285 0.0620067 -6.95771 -84.7708 -44.4462 85.8635 -7.94713 -0.434429 -35.993 3.77232 17.8648 -47.9136 5.33911 -0.957807 -16.9248 35.4393 0.468743 -8.64095 -16.2471 1.76276 20.5191 
52.7069 87.0973 62.5302 -72.0201 41.3606 -100.353 -173.173 14.3195 85.5181 -83.8057 12.106 4.06883 48.6586 -8.6358 10.2814 43.8018 6.90811 8.74123 159.248 38.7333 102.612 -61.7863 -10.9459 8.07694 68.1811 -7.73238 0.796368 41.9897 -17.6457 -0.848486 -0.164569 10.5897 -90.8094 5.68656 -0.666819 -1.57311 -5.98508 -0.735418 -1.54226 -28.5128 -0.163292 -1.70073 -8.50011 -0.163285 -1.70073 92.7233 -52.5614 -96.1875 17.9496 -4.84571 -4.04701 15.3459 15.2016 -52.5108 -5.82255 0.0732593 -7.31306 -86.6079 -55.2554 84.595 -15.534 -17.9081 -29.8804 1.60755 67.7725 -9.40909 9.30666 -1.10565 -16.76 38.4244 1.19952 -9.05773 -19.5402 2.31876 20.2964 
40.1059 85.0396 50.1096 -68.5349 55.2303 -97.1177 -165.456 41.6869 83.8392 -109.598 6.06262 5.94093 54.4566 0.109822 16.5735 46.0387 8.24509 10.5708 168.952 22.1262 104.319 -56.8938 -17.3292 5.54265 71.8108 -11.9338 1.2657 46.2018 -22.7831 0.422732 1.0764 10.3137 -90.9245 6.25717 1.7596 -1.87742 -5.41407 1.6753 -1.95303 -27.9531 2.24244 -1.26177 -7.94043 2.24245 -1.26177 94.1249 -48.5302 -94.7089 17.8003 -4.95576 -34.9211 9.61069 8.21416 -67.2008 -5.77578 -0.00731651 -5.53824 -85.7916 -58.8758 86.2198 -0.810777 -25.9661 0.53732 -6.36553 76.3843 -0.0401039 11.9874 -1.09474 -15.1096 36.779 2.16993 -11.4926 -20.1807 3.96039 21.413 
26.1995 84.9504 36.1378 -61.8632 57.6334 -106.198 -167.466 65.5787 77.4911 -99.3363 4.87403 5.25731 57.3765 2.55995 17.7611 51.3903 11.2104 11.5224 174.078 7.29032 94.9578 -42.3324 -15.7676 0.883773 72.4009 -5.22366 12.472 43.719 -20.9032 -3.25959 1.70418 9.67134 -90.3364 7.55191 3.25689 -0.824102 -4.11509 3.21745 -0.966784 -26.6846 3.35378 0.193953 -6.67199 3.35379 0.193939 97.5825 -35.3775 -90.7107 20.2178 -4.73501 -51.2578 -2.29614 -0.298556 -90.4785 -7.83977 -0.265697 -1.02024 -87.5603 -47.7242 81.9708 0.371018 -17.8585 22.7953 -13.4721 72.7469 -0.0678583 9.32375 -1.15745 -17.1901 25.9059 -0.406494 -11.4277 -12.2993 1.98621 19.7707 
10.4274 87.5053 20.2335 -67.8164 50.9802 -103.583 -166.93 63.845 74.4824 -69.6731 10.5108 -0.316431 57.5443 1.98082 15.2594 58.1553 15.1818 13.0043 175.999 -6.38304 92.4863 -35.4031 -16.5012 -2.61409 48.405 21.0327 23.5992 22.3355 10.6723 -7.92031 1.25261 9.63834 -90.0239 7.61755 2.4908 -0.174494 -4.05106 2.48068 -0.284018 -26.6054 2.42812 0.582602 -6.59278 2.42813 0.58259 98.6172 -36.1717 -88.664 12.3649 -16.0477 -42.0121 -9.69655 12.2187 -101.618 -4.0116 -0.207593 0.350552 -89.1279 -45.9477 79.1845 -4.46977 -15.6831 15.8513 -16.2914 54.5253 1.53224 8.97393 -1.29201 -17.877 19.256 -2.99507 -15.7113 -8.23536 0.808911 21.0503 
-5.21385 87.4785 4.34854 -77.4404 44.037 -92.984 -163.826 47.3767 78.2275 -61.6278 12.9414 -5.23138 57.2576 0.536686 13.1454 55.2334 13.1063 10.8012 174.286 1.10867 96.4139 -71.6388 -22.8899 -0.506805 46.6645 21.6599 10.7399 12.1368 22.8404 -1.6068 0.494601 10.1882 -90.4167 6.49551 0.810769 -0.848546 -5.17554 0.772626 -0.883404 -27.7113 1.02828 -0.565644 -7.69868 1.02828 -0.565654 95.8063 -45.4349 -92.451 13.6447 -26.6446 -22.9905 -12.3749 12.8895 -77.2605 -3.51252 -0.0172216 -5.02658 -87.3669 -52.6629 83.1052 -5.40585 -6.55026 -8.05206 -12.3605 33.815 -12.7162 7.12636 -1.16624 -17.2967 21.2884 -3.19059 -19.5162 -9.19685 1.88965 22.1776 
-20.7225 85.2706 -11.2958 -83.4404 34.4101 -96.9369 -168.398 21.0025 74.9614 -53.8876 23.2258 -7.01035 60.6524 13.7866 28.2914 59.3208 15.0175 9.94881 168.233 23.9338 91.092 -110.106 -18.1394 -2.54115 53.3118 11.7272 -3.48929 19.3169 14.4484 -6.32133 -0.501759 10.1973 -89.5637 6.48164 -0.816955 0.888464 -5.18937 -0.777081 0.923544 -27.7253 -1.04622 0.60186 -7.71265 -1.04621 0.601846 95.5934 -53.6351 -91.7515 23.6647 -18.5299 0.510829 -8.48632 0.155803 -51.4824 -10.6645 -0.0802144 -4.49021 -86.2998 -53.9012 84.853 -3.91932 -0.00116605 -36.9622 -8.55945 19.4917 -32.5164 8.72137 -1.43454 -18.1434 22.375 -3.53598 -12.1 -10.4831 -0.209078 11.4008 
-36.0782 84.2854 -26.4708 -79.6068 22.027 -96.1654 -176.061 9.62565 82.843 -49.7738 25.81 0.181691 62.7997 12.6461 20.904 67.8323 19.6495 10.4033 164.67 57.529 95.7095 -113.731 -13.5631 -3.125 58.0544 4.66896 -2.49461 28.6317 0.489196 -6.12098 -1.33858 9.48771 -90.1889 7.90151 -2.75485 -0.222638 -3.76642 -2.76197 -0.10109 -26.3233 -2.56047 -1.04083 -6.31069 -2.56047 -1.04084 96.2262 -51.0288 -91.1258 34.0792 -5.53367 31.1834 -7.35295 1.20211 -57.0723 -8.6619 -0.0513104 -4.80565 -86.102 -45.055 83.8221 -9.50909 0.772894 -59.6983 0.813463 10.4678 -58.6019 8.75707 -1.41958 -17.9261 25.3019 -4.15959 -6.27197 -13.6576 -2.25554 4.94395 
-55.5909 87.0331 -44.1255 -79.4678 27.1967 -90.6078 -175.182 -11.4372 92.5343 -34.4758 28.0677 6.16722 52.7924 -8.47364 2.31895 54.352 12.1191 8.55946 165.914 63.5332 100.479 -77.3769 -16.8752 0.714338 61.3483 0.451985 -2.88804 36.3046 -11.1696 -7.6354 -1.47902 9.34168 -90.7271 8.16797 -3.27087 -1.24941 -3.49933 -3.32269 -1.10411 -26.0545 -2.74415 -2.17514 -6.04183 -2.74416 -2.17514 92.9478 -44.5757 -97.3038 39.7117 -4.21491 45.5601 2.04905 9.42691 -60.364 -6.24385 0.0554834 -6.72615 -83.2203 -41.3822 87.9705 -11.1695 -6.29633 -53.6356 8.70015 3.63212 -80.3296 11.4755 -1.65863 -17.3076 21.5889 -0.292351 -10.6579 -14.8599 1.86356 11.8149 
-75.2009 87.7118 -61.5592 -83.9085 35.7986 -90.3659 -175.527 -18.5666 88.1946 -53.3024 20.0029 5.21823 45.702 -14.2878 0.386746 44.729 7.91402 13.2231 162.35 54.6768 99.6334 -48.5743 -14.7629 8.36208 56.3656 10.4609 7.81287 38.6487 -15.487 -10.4566 -1.01608 9.63088 -90.553 7.60231 -2.26866 -0.974647 -4.067 -2.30936 -0.873824 -26.6106 -1.87088 -1.61152 -6.59798 -1.87089 -1.61155 92.5315 -46.4003 -97.6296 30.4134 -0.471835 36.0915 12.7898 12.2679 -61.1428 -4.96434 0.113971 -8.86338 -82.6592 -44.1069 89.2138 -7.19112 -2.94523 -32.9613 7.03659 6.75728 -71.0983 10.054 -1.32304 -15.6082 20.8524 1.15621 -10.0794 -15.6244 2.58113 14.9644 
-93.743 86.5182 -78.6124 -86.4987 40.6088 -87.4629 -168.008 -1.65133 89.6427 -97.5483 6.93155 5.64151 47.3317 -10.4719 4.53004 43.14 6.89889 12.2184 155.223 40.7338 104.272 -53.8823 -17.3646 12.1282 63.4145 -3.86997 -2.72293 28.0638 0.93915 0.286484 -0.377339 9.50639 -90.9037 7.84915 -1.14761 -1.72248 -3.82238 -1.2223 -1.67033 -26.3497 -0.576991 -1.98765 -6.33708 -0.577001 -1.98765 94.7699 -52.2948 -93.1542 21.6764 1.74232 13.2058 11.606 8.88797 -61.2483 -5.35373 0.0933301 -8.01285 -84.5872 -52.6057 87.1752 -5.68619 -3.9869 -20.6754 1.06286 30.0346 -33.6988 7.71132 -1.21131 -17.0226 23.5524 1.75324 -6.83091 -17.4479 2.26992 13.1618 
-111.47 84.5173 -95.9603 -86.4122 49.9745 -79.4116 -166.893 28.0188 91.8239 -122.475 5.40705 6.57521 50.3097 -6.32086 11.6026 41.6938 6.04712 11.3122 165.303 21.9929 112.364 -56.5916 -16.5621 8.33048 67.2433 -16.9366 -13.2942 42.4533 -18.0867 -0.12989 0.503534 9.06327 -91.627 8.73688 0.28261 -3.24101 -2.93815 0.139756 -3.25029 -25.4445 1.24315 -3.00664 -5.43189 1.24315 -3.00664 95.7551 -52.3747 -91.6655 19.2411 -9.32883 -13.1213 7.87533 9.5138 -69.4822 -6.32168 -0.029966 -4.98031 -83.6875 -57.3553 88.9629 -5.07105 -15.8337 -3.93211 -14.0557 60.4536 0.00563993 7.02974 -1.16781 -17.8152 27.8186 2.8518 -10.6672 -20.8185 3.99251 17.2552 
-131.206 87.0975 -114.367 -84.5359 52.7082 -86.2954 -177.801 48.2636 88.1395 -104.982 5.07117 6.07426 53.8609 -3.49814 12.0785 44.3978 7.42682 10.7624 172.774 5.56739 90.6882 -45.5494 -15.6632 2.63828 71.7938 -7.9158 2.53959 41.7063 -18.6421 -5.38569 0.856237 8.51537 -90.7868 9.87171 1.34938 -1.68737 -1.79951 1.2738 -1.74512 -24.3371 1.79419 -1.20383 -4.32445 1.79419 -1.20384 96.8626 -45.8781 -90.6951 19.8371 -21.4996 -22.4087 -0.242743 13.012 -88.4777 -2.42353 -0.060753 -2.17736 -84.4161 -53.5449 87.5223 -3.65596 -22.9907 11.1653 -9.21422 74.3875 0.485443 6.96389 -0.887559 -17.252 24.5471 0.76674 -10.8457 -18.5729 2.39589 14.657 
